<?xml version="1.0" encoding="utf-8"?>
<!-- Generator: Adobe Illustrator 18.0.0, SVG Export Plug-In . SVG Version: 6.00 Build 0)  -->
<!DOCTYPE svg PUBLIC "-//W3C//DTD SVG 1.1//EN" "http://www.w3.org/Graphics/SVG/1.1/DTD/svg11.dtd">
<svg version="1.1" id="Layer_1" xmlns="http://www.w3.org/2000/svg" xmlns:xlink="http://www.w3.org/1999/xlink" x="0px" y="0px"
	 viewBox="0 0 220 220" enable-background="new 0 0 220 220" xml:space="preserve">
<g id="icomoon-ignore">
	<line fill="none" stroke="#449FDB" x1="119.543" y1="10.574" x2="119.543" y2="10.574"/>
</g>
<path d="M143.123,16.093c0.331,0,0.6,0.269,0.6,0.6c0,0.331-0.27,0.6-0.6,0.6c-6.392,0-12,3.365-12,7.2c0,0.331-0.269,0.6-0.6,0.6
	c-0.331,0-0.6-0.269-0.6-0.6C129.923,19.94,135.968,16.093,143.123,16.093z M143.123,10.093c-10.604,0-19.2,6.448-19.2,14.4
	c0,4.952,3.335,9.319,8.41,11.911c0,0.032-0.01,0.054-0.01,0.089c0,2.152-1.607,4.468-2.314,5.683c0.001,0,0.002,0,0.002,0
	c-0.056,0.132-0.089,0.277-0.089,0.43c0,0.6,0.486,1.087,1.087,1.087c0.113,0,0.311-0.03,0.306-0.017
	c3.75-0.614,7.283-4.06,8.104-5.058c1.199,0.176,2.435,0.275,3.703,0.275c10.602,0,19.2-6.448,19.2-14.4
	S153.727,10.093,143.123,10.093z M143.123,36.493c-1.1,0-2.23-0.084-3.355-0.248c-0.116-0.019-0.233-0.025-0.348-0.025
	c-0.713,0-1.396,0.317-1.855,0.876c-0.514,0.625-1.975,2.021-3.702,3.047c0.468-1.074,0.834-2.278,0.859-3.518
	c0.007-0.077,0.011-0.155,0.011-0.221c0-0.902-0.505-1.727-1.308-2.137c-4.447-2.27-7.102-5.924-7.102-9.773
	c0-6.617,7.536-12,16.8-12c9.262,0,16.8,5.383,16.8,12S152.386,36.493,143.123,36.493z"/>
<g>
	<defs>
		<rect id="SVGID_1_" x="7.214" y="106.101" width="38.4" height="38.4"/>
	</defs>
	<clipPath id="SVGID_2_">
		<use xlink:href="#SVGID_1_"  overflow="visible"/>
	</clipPath>
	<path clip-path="url(#SVGID_2_)" fill="#343333" d="M39.606,122.397l-1.697,1.696c-0.234,0.235-0.613,0.235-0.848,0l-2.12-2.12
		l-1.72,4.307l0.144-0.364c-3.612-3.606-7.283-4.061-10.595-4.466c-1.064-0.132-2.096-0.268-3.112-0.487l10.19-4.081l-2.058-2.058
		c-0.234-0.234-0.234-0.614,0-0.848l1.697-1.698c0.234-0.234,0.614-0.234,0.848,0l9.27,9.272
		C39.841,121.783,39.841,122.162,39.606,122.397 M27.205,141.342c-0.149,0.376-0.476,0.653-0.872,0.734
		c-0.091,0.019-0.182,0.028-0.275,0.025c-0.304-0.007-0.598-0.131-0.818-0.35L9.966,126.645c-0.28-0.281-0.404-0.682-0.33-1.072
		c0.073-0.389,0.335-0.718,0.697-0.876l7.462-2.989c5.027,1.672,10.055,0.061,15.084,5.428L27.205,141.342z M32.032,110.58
		c-0.566-0.568-1.32-0.878-2.122-0.878c-0.802,0-1.554,0.311-2.122,0.88l-1.693,1.694c-0.568,0.566-0.881,1.32-0.882,2.123
		c0,0.564,0.155,1.106,0.445,1.576l-16.291,6.527c-1.09,0.479-1.871,1.46-2.09,2.627c-0.222,1.172,0.15,2.375,1.001,3.224
		l15.264,15.096c0.658,0.656,1.531,1.031,2.454,1.052c0.02,0.001,0.072,0.001,0.092,0.001c0.242,0,0.487-0.025,0.732-0.076
		c1.192-0.247,2.17-1.072,2.612-2.194l6.41-16.051c0.484,0.318,1.049,0.488,1.642,0.488c0.802,0,1.556-0.313,2.122-0.88l1.69-1.688
		c0.571-0.569,0.886-1.324,0.886-2.129c0-0.805-0.314-1.56-0.88-2.12L32.032,110.58z"/>
	<path clip-path="url(#SVGID_2_)" fill="#343333" d="M27.014,126.501c0.995,0,1.8,0.806,1.8,1.8c0,0.994-0.805,1.8-1.8,1.8
		c-0.995,0-1.8-0.806-1.8-1.8C25.214,127.307,26.02,126.501,27.014,126.501 M27.014,131.301c1.654,0,3-1.345,3-3
		c0-1.655-1.346-3-3-3c-1.654,0-3,1.345-3,3C24.014,129.956,25.361,131.301,27.014,131.301"/>
	<path clip-path="url(#SVGID_2_)" fill="#343333" d="M42.614,110.901c-0.995,0-1.8-0.806-1.8-1.8s0.805-1.8,1.8-1.8
		c0.995,0,1.8,0.806,1.8,1.8S43.609,110.901,42.614,110.901 M42.614,106.101c-1.654,0-3,1.345-3,3s1.346,3,3,3c1.654,0,3-1.345,3-3
		S44.268,106.101,42.614,106.101"/>
	<path clip-path="url(#SVGID_2_)" fill="#343333" d="M19.214,125.301c0.662,0,1.2,0.536,1.2,1.2c0,0.664-0.538,1.2-1.2,1.2
		c-0.662,0-1.2-0.536-1.2-1.2C18.014,125.837,18.552,125.301,19.214,125.301 M16.814,126.501c0,1.324,1.076,2.4,2.4,2.4
		s2.4-1.076,2.4-2.4c0-1.324-1.076-2.4-2.4-2.4S16.814,125.177,16.814,126.501"/>
	<path clip-path="url(#SVGID_2_)" fill="#343333" d="M22.814,134.901c0.662,0,1.2-0.536,1.2-1.2s-0.538-1.2-1.2-1.2
		s-1.2,0.536-1.2,1.2S22.152,134.901,22.814,134.901"/>
	<path clip-path="url(#SVGID_2_)" fill="#343333" d="M42.014,114.501c-0.662,0-1.2,0.536-1.2,1.2c0,0.664,0.538,1.2,1.2,1.2
		s1.2-0.536,1.2-1.2C43.214,115.037,42.677,114.501,42.014,114.501"/>
</g>
<g>
	<defs>
		<rect id="SVGID_3_" x="153.221" y="157.391" width="29.85" height="37.472"/>
	</defs>
	<clipPath id="SVGID_4_">
		<use xlink:href="#SVGID_3_"  overflow="visible"/>
	</clipPath>
	<path clip-path="url(#SVGID_4_)" d="M180.939,192.782h-25.586v-30.186h3.385c0.44,1.211,1.622,2.082,3.012,2.082h12.793
		c1.388,0,2.57-0.871,3.012-2.082h3.384V192.782z M160.683,161.554c0-0.574,0.479-1.04,1.067-1.04h2.428
		c0.379,0,0.731-0.197,0.922-0.517c0.196-0.328,0.538-0.523,0.916-0.523h4.264c0.378,0,0.72,0.196,0.916,0.523
		c0.191,0.32,0.541,0.517,0.922,0.517h2.426c0.588,0,1.067,0.467,1.067,1.04c0,0.575-0.479,1.042-1.067,1.042H161.75
		C161.162,162.596,160.683,162.129,160.683,161.554 M182.005,160.514h-4.451c-0.44-1.211-1.622-2.082-3.012-2.082h-1.891
		c-0.601-0.654-1.463-1.04-2.372-1.04h-4.264c-0.91,0-1.772,0.388-2.372,1.04h-1.892c-1.39,0-2.572,0.871-3.012,2.082h-4.451
		c-0.589,0-1.066,0.466-1.066,1.04v32.268c0,0.575,0.476,1.042,1.066,1.042h27.718c0.589,0,1.066-0.467,1.066-1.042v-32.268
		C183.07,160.979,182.594,160.514,182.005,160.514"/>
	<path clip-path="url(#SVGID_4_)" d="M164.948,168.529c0,0.402,0.478,0.728,1.066,0.728h11.728c0.588,0,1.066-0.326,1.066-0.728
		c0-0.402-0.478-0.728-1.066-0.728h-11.728C165.426,167.8,164.948,168.127,164.948,168.529"/>
	<path clip-path="url(#SVGID_4_)" d="M166.014,173.379h9.594c0.589,0,1.067-0.326,1.067-0.728c0-0.403-0.478-0.728-1.067-0.728
		h-9.594c-0.589,0-1.066,0.325-1.066,0.728C164.948,173.053,165.425,173.379,166.014,173.379"/>
	<path clip-path="url(#SVGID_4_)" d="M177.741,176.044h-11.726c-0.589,0-1.067,0.326-1.067,0.728c0,0.403,0.478,0.728,1.067,0.728
		h11.726c0.589,0,1.066-0.325,1.066-0.728C178.806,176.37,178.33,176.044,177.741,176.044"/>
	<path clip-path="url(#SVGID_4_)" d="M166.014,181.623h9.594c0.589,0,1.067-0.326,1.067-0.728c0-0.403-0.478-0.728-1.067-0.728
		h-9.594c-0.589,0-1.066,0.325-1.066,0.728C164.948,181.297,165.425,181.623,166.014,181.623"/>
	<path clip-path="url(#SVGID_4_)" d="M177.741,184.288h-11.726c-0.589,0-1.067,0.326-1.067,0.728c0,0.403,0.478,0.728,1.067,0.728
		h11.726c0.589,0,1.066-0.325,1.066-0.728C178.806,184.614,178.33,184.288,177.741,184.288"/>
	<path clip-path="url(#SVGID_4_)" d="M175.609,188.41h-9.594c-0.589,0-1.067,0.326-1.067,0.728c0,0.403,0.478,0.728,1.067,0.728
		h9.594c0.589,0,1.066-0.325,1.066-0.728C176.674,188.736,176.198,188.41,175.609,188.41"/>
	<path clip-path="url(#SVGID_4_)" d="M162.062,168.105l-2.444,2.387l-1.378-1.346c-0.418-0.407-1.092-0.407-1.508,0
		c-0.416,0.407-0.416,1.066,0,1.472l2.132,2.082c0.209,0.203,0.481,0.305,0.754,0.305c0.274,0,0.546-0.102,0.754-0.305l3.199-3.122
		c0.416-0.407,0.416-1.066,0-1.472C163.153,167.698,162.478,167.698,162.062,168.105"/>
	<path clip-path="url(#SVGID_4_)" d="M162.062,184.759l-2.444,2.387l-1.378-1.345c-0.418-0.407-1.092-0.407-1.508,0
		c-0.415,0.407-0.416,1.066,0,1.471l2.132,2.082c0.209,0.203,0.481,0.305,0.754,0.305c0.274,0,0.546-0.102,0.754-0.305l3.199-3.122
		c0.416-0.407,0.416-1.066,0-1.472C163.153,184.354,162.478,184.352,162.062,184.759"/>
	<path clip-path="url(#SVGID_4_)" d="M157.158,182.068c0.209,0.203,0.481,0.305,0.754,0.305c0.274,0,0.546-0.102,0.755-0.305
		l1.378-1.346l1.379,1.346c0.208,0.203,0.48,0.305,0.754,0.305c0.272,0,0.545-0.102,0.754-0.305c0.416-0.407,0.416-1.066,0-1.472
		l-1.379-1.345l1.379-1.346c0.416-0.407,0.416-1.066,0-1.471c-0.416-0.407-1.092-0.407-1.507,0l-1.379,1.345l-1.378-1.345
		c-0.418-0.407-1.092-0.407-1.508,0c-0.415,0.407-0.416,1.066,0,1.471l1.379,1.346l-1.379,1.345
		C156.742,181.002,156.742,181.661,157.158,182.068"/>
</g>
<g>
	<path fill="#FFFFFF" d="M36.278,156.156"/>
</g>
<g>
	<path fill="#FFFFFF" d="M187.847,157.492"/>
</g>
<g>
	<g>
		<g>
			<path fill="none" stroke="#000000" stroke-width="14" stroke-miterlimit="10" d="M22.73,92.436
				c6.833-33.392,32.687-59.854,65.747-67.573"/>
			<g>
				<polygon points="86.311,39.587 108.448,22.574 82.647,11.905 				"/>
			</g>
		</g>
	</g>
	<g>
		<g>
			<path fill="none" stroke="#000000" stroke-width="14" stroke-miterlimit="10" d="M137.374,193.908
				c-32.334,10.778-68.179,1.619-91.393-23.152"/>
			<g>
				<polygon points="59.815,165.27 34.012,154.605 37.674,182.284 				"/>
			</g>
		</g>
	</g>
	<g>
		<g>
			<path fill="none" stroke="#000000" stroke-width="14" stroke-miterlimit="10" d="M167.929,43.887
				c25.501,22.613,35.492,58.235,25.646,90.725"/>
			<g>
				<polygon points="181.907,125.374 185.573,153.053 207.713,136.042 				"/>
			</g>
		</g>
	</g>
</g>
<g>
	<path fill="#FFFFFF" d="M113.22,25.562"/>
</g>
</svg>
